<svg width="56" height="21" viewBox="0 0 56 21" fill="none" xmlns="http://www.w3.org/2000/svg">
<path d="M5.18307 1.97447V10.1731C5.18308 11.1002 5.4497 12.0135 5.9601 12.8347C6.4705 13.656 7.20947 14.3608 8.11373 14.8887C9.73508 15.8297 11.4145 15.92 12.4638 16.054C12.8633 16.0892 13.2471 16.2042 13.5833 16.3894C13.9196 16.5745 14.1986 16.8246 14.3972 17.1188C14.5718 17.3947 14.6704 17.7002 14.6857 18.0127C14.7011 18.3251 14.6328 18.6364 14.4859 18.9236C14.2752 19.2953 13.9589 19.6176 13.5651 19.8618C13.1713 20.106 12.7122 20.2646 12.2283 20.3235C10.3146 20.5054 8.37766 20.2637 6.60862 19.6223C4.82424 18.9534 3.28743 17.8907 2.16062 16.5465C0.726527 14.8315 -0.0292414 12.779 0.000865826 10.681V2.45659C0.00023712 1.85097 0.276302 1.26839 0.771773 0.829745C1.10747 0.497024 1.54262 0.246004 2.03214 0.102692C2.46898 -0.0155912 2.93565 -0.0320295 3.38268 0.0551211C3.8297 0.142272 4.24041 0.329762 4.57124 0.597706C4.63048 0.647819 4.68566 0.701221 4.73643 0.757555C5.03966 1.11092 5.19661 1.53852 5.18307 1.97447Z" fill="white"/>
<path d="M28.9772 0.167038C28.1023 -0.0932178 27.2915 0.00828207 26.5683 0.0889613C24.8859 0.306197 23.2861 0.879053 21.902 1.7598C20.2448 2.77135 18.9192 4.15827 18.0612 5.77815C17.5156 6.7955 17.1346 7.8768 16.9296 8.9897C16.7342 10.0307 16.7692 11.0067 16.8538 12.917C16.9471 15.0276 17.0025 16.0999 17.4166 16.9145C17.9262 17.9247 18.7425 18.7875 19.7731 19.4051C21.006 20.113 22.4598 20.4513 23.9231 20.3707C25.6891 20.3432 27.3818 19.7353 28.6768 18.6634C28.9038 18.4712 29.1144 18.2642 29.3067 18.044C30.2078 16.9864 30.6853 15.6897 30.6629 14.3614V10.0203C30.6629 9.68726 30.5642 9.36014 30.3767 9.07216C30.1892 8.78418 29.9197 8.54562 29.5955 8.3807C29.0505 8.11633 28.4193 8.02981 27.8106 8.13606C27.3751 8.20605 26.9655 8.3705 26.6178 8.61493C26.2242 8.89834 25.9087 9.25847 25.6953 9.66766C25.482 10.0769 25.3766 10.5242 25.3871 10.9754V14.1974C25.3961 14.4772 25.3273 14.7546 25.1868 15.0048C25.0464 15.255 24.8386 15.4703 24.5822 15.6314C24.3245 15.7911 24.0208 15.8814 23.7073 15.8917C22.742 15.8917 21.7883 15.0224 21.8495 13.8773V9.82252C21.8416 8.79561 22.2322 7.79791 22.9549 6.99874C23.2849 6.63909 23.6542 6.30955 24.0572 6.01498C25.1144 5.25986 26.3582 4.7406 27.6852 4.50029C28.0524 4.42206 28.4244 4.36297 28.7993 4.32332C29.2667 4.27026 29.7037 4.08783 30.049 3.80168C30.3942 3.51552 30.6303 3.14003 30.7241 2.72795V2.70453C30.847 2.14441 30.7437 1.56353 30.4325 1.06492C30.0857 0.61781 29.5684 0.298643 28.9772 0.167038Z" fill="white"/>
<path d="M44.5216 12.9706C44.214 12.9716 43.9092 12.9173 43.6246 12.8109C43.3401 12.7044 43.0815 12.5478 42.8635 12.3501C42.6456 12.1525 42.4727 11.9175 42.3547 11.6589C42.2367 11.4002 42.176 11.1229 42.176 10.8428C42.1906 9.119 41.4566 7.45976 40.1338 6.22646C38.8109 4.99316 37.0065 4.28571 35.1134 4.25818C34.5071 4.23467 33.9346 3.99764 33.5166 3.59711C33.0986 3.19658 32.8679 2.66387 32.8731 2.1114C32.8783 1.55893 33.1191 1.02991 33.5446 0.635978C33.97 0.242046 34.5469 0.014013 35.1536 0H35.1966C37.4785 0.0286233 39.7027 0.656757 41.6018 1.80887C43.2235 2.80725 44.5511 4.15286 45.4682 5.72754C46.3853 7.30222 46.8637 9.05782 46.8615 10.8402C46.8619 11.1198 46.8017 11.3968 46.6844 11.6552C46.5671 11.9137 46.3951 12.1486 46.178 12.3464C45.961 12.5443 45.7032 12.7013 45.4195 12.8084C45.1358 12.9155 44.8316 12.9706 44.5245 12.9706H44.5216Z" fill="white"/>
<path d="M34.6382 8.02942C35.2897 8.02942 35.9145 8.24314 36.3751 8.62357C36.8358 9.00399 37.0946 9.51996 37.0946 10.058C37.0939 11.0893 37.3993 12.105 37.9841 13.0162C38.5689 13.9274 39.4153 14.7064 40.4491 15.2849C41.6536 15.9462 43.0626 16.3082 44.5089 16.3278C45.1453 16.3501 45.7463 16.5758 46.1851 16.9572C46.6239 17.3386 46.8661 17.8458 46.8606 18.3719C46.8551 18.898 46.6024 19.4017 46.1558 19.7768C45.7091 20.1519 45.1035 20.369 44.4667 20.3824H44.4154C42.0266 20.3524 39.699 19.7535 37.7125 18.6575C36.0062 17.7095 34.6084 16.4296 33.6424 14.9304C32.6764 13.4311 32.1717 11.7587 32.1729 10.0604C32.1736 9.52242 32.4326 9.00658 32.893 8.6259C33.3534 8.24522 33.9777 8.03074 34.6292 8.02942H34.6382Z" fill="white"/>
<path d="M52.1064 20.3823C53.8446 20.3823 55.2538 19.2762 55.2538 17.9118C55.2538 16.5473 53.8446 15.4412 52.1064 15.4412C50.3681 15.4412 48.959 16.5473 48.959 17.9118C48.959 19.2762 50.3681 20.3823 52.1064 20.3823Z" fill="white"/>
</svg>
