<svg width="56" height="51" viewBox="0 0 56 51" fill="none" xmlns="http://www.w3.org/2000/svg">
<path opacity="0.4" d="M47.3522 29.0077C46.4057 28.7537 45.4407 28.1557 44.5227 27.2366C41.3175 24.0346 39.676 17.8774 40.8484 13.5081C41.4202 11.377 42.5688 9.97959 44.0832 9.57446C45.5977 9.16934 47.2909 9.80587 48.851 11.3667C52.0484 14.5666 53.6964 20.7256 52.5237 25.0962C51.9522 27.2259 50.8036 28.6234 49.2892 29.0285C48.6531 29.1936 47.9846 29.1864 47.3522 29.0077ZM45.9865 9.72076C45.3769 9.54868 44.7326 9.5417 44.1195 9.70052C42.6549 10.0924 41.5459 11.457 40.9871 13.5397C39.8259 17.8672 41.4588 23.9674 44.6283 27.1304C46.1505 28.66 47.7977 29.28 49.264 28.8872C50.7303 28.4944 51.8441 27.1325 52.4026 25.0511C53.5641 20.7223 51.9325 14.6224 48.7635 11.4526C47.8532 10.5622 46.9094 9.974 45.9851 9.72599L45.9865 9.72076Z" fill="#32A0C8"/>
<path d="M44.2032 27.1177C43.5194 26.9342 42.8265 26.503 42.1634 25.8401C39.8637 23.5413 38.6795 19.1115 39.5225 15.9698C39.9347 14.4336 40.7657 13.4261 41.8576 13.1332C42.9494 12.8403 44.1732 13.299 45.2952 14.4242C47.5963 16.7234 48.7804 21.1532 47.9374 24.2949C47.5252 25.8311 46.6943 26.8387 45.6024 27.1315C45.143 27.2506 44.6602 27.2458 44.2032 27.1177ZM43.223 13.2781C42.7886 13.155 42.3292 13.1503 41.8924 13.2645C40.8474 13.5447 40.0525 14.5171 39.6533 16.0049C38.8215 19.1047 39.9896 23.4741 42.2589 25.7453C43.3484 26.835 44.5238 27.2808 45.5663 26.9999C46.6087 26.719 47.4062 25.7473 47.8054 24.2595C48.6371 21.1596 47.4677 16.7899 45.1984 14.5188C44.5549 13.8822 43.8819 13.4549 43.223 13.2781Z" fill="#32A0C8"/>
<path d="M34.7027 37.4742L35.0667 35.956L39.0137 27.3361L37.5008 25.8188L33.4816 26.9351L30.6822 38.5902C30.4944 39.3737 30.6624 39.9752 31.0762 40.2558L32.4203 41.6242L32.7969 40.9208L33.3932 39.6176C34.0261 39.0434 34.4807 38.2994 34.7027 37.4742Z" fill="#32A0C8"/>
<path d="M33.6421 41.8807C32.5319 42.1896 31.8816 41.3957 32.192 40.1083L34.9901 28.4528L39.0093 27.3365L36.2112 38.9919C35.9051 40.2791 34.7546 41.5737 33.6421 41.8807Z" fill="url(#paint0_linear_6_12389)"/>
<path d="M45.2576 21.9094C45.6666 20.385 45.0942 18.2455 43.9792 17.1306C43.5606 16.7113 43.1249 16.4963 42.7225 16.471L33.5164 15.7849L36.8979 28.3011L44.5031 23.1071C44.835 22.8836 45.1046 22.4794 45.2576 21.9094Z" fill="#32A0C8"/>
<path opacity="0.5" d="M40.172 17.164C39.5974 16.5893 39.0039 16.2577 38.4406 16.1528L37.9693 16.1175C36.9944 16.1572 36.168 16.9235 35.7891 18.3355C35.1394 20.7568 36.0504 24.1518 37.8163 25.9277C38.1766 26.3043 38.61 26.6032 39.09 26.8062L42.2321 24.6599C42.8275 22.2478 41.9214 18.913 40.172 17.164Z" fill="#2088AD"/>
<path d="M40.964 25.4624C41.7747 22.441 40.6389 18.1966 38.427 15.9829C37.4215 14.9773 36.3673 14.5655 35.4404 14.698L35.4209 14.7026L35.3972 14.7074C35.3564 14.7133 35.3149 14.7218 35.2747 14.7306C29.6732 15.8356 23.8846 15.5276 18.4321 13.8343L16.8859 13.3549L23.7529 38.5482L24.7986 37.4035C28.6094 33.2245 33.3927 30.0506 38.7242 28.1634C39.7274 27.9084 40.5549 26.9868 40.964 25.4624Z" fill="url(#paint1_linear_6_12389)"/>
<path d="M26.559 34.021C28.1144 28.224 25.9361 20.0825 21.6934 15.8369C19.5778 13.7192 17.3483 12.971 15.451 13.471L15.4418 13.4685L15.4301 13.4654L13.7037 13.9398L14.2557 13.9716C12.899 14.7918 11.8072 16.3643 11.1982 18.6339C9.64271 24.4309 11.8224 32.5727 16.0647 36.8196C17.7297 38.4857 19.4629 39.3025 21.0539 39.3328L20.7239 39.6171L22.3121 39.1827L22.3375 39.1769L22.3952 39.1601C24.2561 38.6391 25.7907 36.8842 26.559 34.021Z" fill="#2088AD"/>
<path d="M25.3294 34.3567C26.8849 28.5597 24.7065 20.4182 20.4639 16.1727C18.3769 14.0836 16.1817 13.3278 14.298 13.788L14.0354 13.8577C13.9436 13.8863 13.8538 13.9183 13.7648 13.9519L14.2533 13.9806C12.8966 14.8009 11.8047 16.3733 11.1957 18.643C9.64024 24.4399 11.8199 32.5818 16.0622 36.8287C17.7273 38.4947 19.4604 39.3116 21.0514 39.3418L20.7504 39.6017C22.8016 39.2228 24.5061 37.4251 25.3294 34.3567Z" fill="white"/>
<path d="M20.3102 39.7085C24.4264 38.6159 26.2289 31.9505 24.3364 24.821C22.4438 17.6915 17.5728 12.7977 13.4567 13.8904C9.34054 14.983 7.53797 21.6484 9.43052 28.7778C11.3231 35.9073 16.1941 40.8011 20.3102 39.7085Z" fill="url(#paint2_linear_6_12389)"/>
<path d="M20.3106 38.0434C23.9078 37.0809 25.4725 31.25 23.8054 25.0197C22.1384 18.7894 17.8708 14.519 14.2736 15.4815C10.6764 16.444 9.11172 22.275 10.7788 28.5053C12.4459 34.7356 16.7134 39.006 20.3106 38.0434Z" fill="white"/>
<path opacity="0.5" d="M16.3735 35.6436C15.7986 35.0631 15.2797 34.4298 14.8237 33.7519C14.3509 33.0535 14.1737 32.1963 14.331 31.3677C14.4882 30.5391 14.967 29.8063 15.6627 29.3296C17.3791 28.156 20.0379 26.662 23.8785 25.3128C23.1251 22.3174 21.6861 19.48 19.7624 17.5553C18.1229 15.9143 16.4042 15.2107 14.8822 15.3727L14.8717 15.3699L14.7003 15.3925L14.6709 15.3973L14.5148 15.4255L14.4865 15.4319C14.4301 15.4434 14.3734 15.4562 14.3177 15.4707L14.3085 15.4682C14.1855 15.4997 14.0641 15.5372 13.9448 15.5808L13.9352 15.5853C13.8806 15.6057 13.8274 15.6264 13.7778 15.6496L13.7464 15.6622L13.606 15.7254L13.5723 15.7416C13.5252 15.7654 13.4769 15.7889 13.4292 15.8153L13.4063 15.8274C13.2946 15.8885 13.1841 15.9556 13.0726 16.0266L13.0602 16.0359C13.0124 16.0679 12.9655 16.1015 12.918 16.1378C12.9056 16.1471 12.8937 16.1551 12.8827 16.1648C12.8424 16.1947 12.8035 16.2249 12.7642 16.2564L12.7249 16.2879L12.6086 16.387L12.5743 16.4156C12.528 16.4579 12.4812 16.5014 12.4358 16.5453L12.4341 16.5518C12.3847 16.6002 12.3365 16.6489 12.2877 16.7003L12.272 16.7171C12.2309 16.7607 12.191 16.8047 12.1508 16.85C12.1388 16.8636 12.1264 16.8785 12.113 16.8917L12.0165 17.006C12.0037 17.0222 11.9893 17.0393 11.9762 17.0568C11.9447 17.096 11.9131 17.1352 11.8836 17.1721C11.8709 17.1883 11.8581 17.2045 11.8463 17.2224C11.8114 17.2691 11.7777 17.3161 11.7437 17.3644C11.7406 17.3762 11.7282 17.3855 11.7195 17.3972C11.6781 17.4575 11.6387 17.5156 11.5968 17.5829L11.5816 17.6082C11.5462 17.6618 11.5134 17.7161 11.4803 17.7717C11.4743 17.7939 11.4566 17.813 11.4441 17.8334C11.418 17.8783 11.3916 17.9245 11.3669 17.9697C11.3533 17.9941 11.3414 18.0175 11.3279 18.0419C11.3031 18.0871 11.2797 18.1327 11.2559 18.1796C11.2492 18.2044 11.2305 18.2274 11.2182 18.2521C11.1934 18.3029 11.1682 18.355 11.1443 18.4075L11.1157 18.4671C11.0823 18.5394 11.0485 18.613 11.017 18.6887L11.0096 18.7161C10.9819 18.783 10.9538 18.8511 10.927 18.9196C10.92 18.9458 10.913 18.9719 10.8968 18.9956L10.8369 19.1561L10.8042 19.2468C10.7901 19.2991 10.7679 19.3506 10.7509 19.4035C10.7425 19.4349 10.7341 19.4663 10.7256 19.4977C10.7102 19.5552 10.6948 19.6127 10.679 19.6715L10.6569 19.7539C10.6337 19.8402 10.6102 19.9278 10.5867 20.0154C10.5481 20.1592 10.5095 20.303 10.4798 20.4506L10.4455 20.6096C10.4195 20.7063 10.4057 20.8049 10.3863 20.9034L10.3577 21.0569C10.338 21.1722 10.3192 21.2891 10.3018 21.4063L10.2848 21.5167C10.2652 21.6628 10.2469 21.8093 10.2322 21.9581C10.2256 22.0194 10.2206 22.0797 10.214 22.141C10.2058 22.2341 10.198 22.3259 10.1922 22.4154L10.1763 22.6312C10.1719 22.7155 10.1672 22.8012 10.1641 22.8858L10.1543 23.1102C10.1513 23.2314 10.1499 23.3515 10.1494 23.4733C10.149 23.5951 10.1485 23.6959 10.1505 23.8086C10.1508 23.8703 10.1514 23.9308 10.153 23.9928C10.1559 24.0917 10.1588 24.1906 10.163 24.2898L10.1707 24.4489C10.1894 24.8183 10.2194 25.1903 10.2609 25.5649L10.2668 25.6211C10.2809 25.7412 10.2959 25.863 10.3099 25.9831L10.3224 26.0775C10.8414 29.8159 12.4781 33.5879 14.8537 35.9646C16.9274 38.0402 19.126 38.6161 20.9022 37.8412C19.4413 37.8641 17.8758 37.1483 16.3735 35.6436Z" fill="white"/>
<path d="M15.2413 35.915C11.519 32.1902 9.60817 25.0469 10.9728 19.9612C11.6895 17.2902 13.1668 15.7175 14.9473 15.3655C12.9834 15.5393 11.3291 17.1444 10.5574 20.0207C9.19276 25.1065 11.1036 32.2498 14.8259 35.9745C16.5936 37.7438 18.4519 38.4232 20.062 38.1054C18.5529 38.2401 16.8585 37.5346 15.2413 35.915Z" fill="white"/>
<path d="M16.6145 24.5387L22.7274 21.9814C23.2205 23.0771 23.6146 24.2147 23.9049 25.3807C24.1337 26.3036 24.296 27.2417 24.3906 28.1879L17.7564 29.037L16.6145 24.5387Z" fill="#D8D8D8"/>
<path d="M17.8991 29.0168C18.6176 28.8245 18.9302 27.6599 18.5973 26.4156C18.2643 25.1713 17.4119 24.3184 16.6933 24.5107C15.9748 24.703 15.6622 25.8676 15.9951 27.1119C16.3281 28.3562 17.1805 29.2091 17.8991 29.0168Z" fill="#32A0C8"/>
<path d="M21.0743 23.5383C22.0124 24.4767 22.4933 26.2778 22.1496 27.559C22.0219 28.0349 21.7915 28.3711 21.5193 28.5602L24.3872 28.1931C24.3023 27.2974 24.1549 26.4088 23.9459 25.5337C23.6534 24.3137 23.2446 23.1246 22.725 21.9826L20.2386 23.0225C20.558 23.1172 20.8465 23.2952 21.0743 23.5383Z" fill="#D8D8D8"/>
<path d="M33.0143 33.3496L32.9607 33.2987C32.9256 33.2598 32.8801 33.2318 32.8295 33.2182C32.7789 33.2047 32.7255 33.2061 32.6757 33.2223L32.2178 33.3615L32.4791 33.4793C32.4736 33.4946 32.4694 33.5103 32.4665 33.5263L31.937 35.7766C31.9027 35.9345 31.9055 36.0981 31.9452 36.2547C31.9849 36.4113 32.0604 36.5565 32.1658 36.6789L32.0118 36.9656L32.47 36.825C32.5368 36.8023 32.5957 36.7607 32.6396 36.7054C32.6835 36.6501 32.7106 36.5834 32.7176 36.5131L33.2459 34.2624C33.2816 34.1028 33.2793 33.9369 33.2391 33.7783C33.1988 33.6198 33.1218 33.4729 33.0143 33.3496Z" fill="#2088AD"/>
<path d="M31.7426 36.8663L31.6877 36.8151C31.581 36.6932 31.5044 36.548 31.464 36.3911C31.4236 36.2342 31.4205 36.0701 31.455 35.9118L31.9832 33.6611C32.0568 33.3501 32.2792 33.2528 32.4795 33.4411L32.5344 33.4923C32.6412 33.6142 32.7179 33.7594 32.7583 33.9163C32.7987 34.0732 32.8017 34.2374 32.7672 34.3957L32.2389 36.6463C32.164 36.957 31.9443 37.055 31.7426 36.8663Z" fill="#2088AD"/>
<defs>
<linearGradient id="paint0_linear_6_12389" x1="37.4286" y1="26.9124" x2="33.3694" y2="42.0405" gradientUnits="userSpaceOnUse">
<stop stop-color="#2088AD"/>
<stop offset="1" stop-color="#2290B7"/>
</linearGradient>
<linearGradient id="paint1_linear_6_12389" x1="30.5939" y1="13.1887" x2="23.7869" y2="38.5573" gradientUnits="userSpaceOnUse">
<stop stop-color="#32A0C8"/>
<stop offset="1" stop-color="#5BBEE2"/>
</linearGradient>
<linearGradient id="paint2_linear_6_12389" x1="13.4567" y1="13.8904" x2="20.3102" y2="39.7085" gradientUnits="userSpaceOnUse">
<stop stop-color="#32A0C8"/>
<stop offset="1" stop-color="#45B3DB"/>
</linearGradient>
</defs>
</svg>
