<svg width="53" height="53" viewBox="0 0 53 53" fill="none" xmlns="http://www.w3.org/2000/svg">
<path d="M2.73367 11.3878C7.13807 15.4485 15.9303 17.7615 15.9303 17.7615C15.9303 17.7615 9.73946 18.8938 5.67977 15.776L6.52695 14.5778C6.52695 14.5778 5.68288 14.8941 4.9796 15.1729C4.01153 14.2419 3.21663 13.0098 2.73367 11.3878Z" fill="#1D8CAA"/>
<path d="M11.3976 11.2599C10.9845 11.599 10.3761 12.1102 10.3761 12.1102L10.7881 10.9688C9.84466 10.5719 8.87743 10.3982 7.95505 10.3621C7.74466 10.9564 7.48968 11.6269 7.48968 11.6269L7.06589 10.3686C4.65251 10.4904 2.74351 11.423 2.74351 11.423C7.14285 15.4649 15.9306 17.761 15.9306 17.761C14.9341 14.1902 13.2429 12.2481 11.3976 11.2599Z" fill="#DAE7F7"/>
<path d="M3.45504 18.5665C4.15771 17.8431 4.99942 17.2716 5.92921 16.8864C6.28276 17.1251 6.7123 17.4019 6.7123 17.4019L6.53423 16.6648C9.93568 15.5735 13.4283 16.9827 13.4283 16.9827C11.7808 18.7217 10.1748 19.5161 8.75107 19.7907C8.59435 19.5586 8.36674 19.2105 8.36674 19.2105L8.2906 19.8627C7.65039 19.9393 7.00207 19.9207 6.36641 19.8076C6.40865 19.4687 6.44492 19.0843 6.44492 19.0843L5.81916 19.6875C4.36339 19.3065 3.45504 18.5665 3.45504 18.5665Z" fill="#DAE7F7"/>
<path d="M8.74618 19.7926C8.58891 19.5584 8.36047 19.2072 8.36047 19.2072L8.28561 19.8641C7.64521 19.9401 6.9965 19.9201 6.36028 19.8048C6.40186 19.4634 6.43737 19.0762 6.43737 19.0762L5.81377 19.6824C4.35775 19.2952 3.44741 18.5479 3.44741 18.5479C7.33165 17.0063 13.4229 16.9722 13.4229 16.9722C11.7767 18.7213 10.1714 19.5185 8.74618 19.7926Z" fill="#1D8CAA"/>
<path d="M37.2114 8.95032L37.5155 11.2434L38.7625 9.67707L42.8633 5.93937L39.2724 7.26837C39.2724 7.26837 37.5199 8.23278 37.4437 8.35358C37.3676 8.47439 37.2114 8.95032 37.2114 8.95032Z" fill="#1D8CAA"/>
<path d="M35.2093 8.05168L42.8642 5.93893L37.1913 8.91203L35.2093 8.05168Z" fill="#32A0C8"/>
<path d="M40.2988 10.4982L37.8726 9.40824L42.8667 5.9401L40.2988 10.4982Z" fill="#32A0C8"/>
<path d="M36.73 10.3668C36.8744 10.242 37.0322 10.1393 37.2001 10.0606L37.1397 9.89411C36.9605 9.97739 36.7922 10.0866 36.6382 10.2196L36.73 10.3668Z" fill="white"/>
<path d="M35.2082 23.8227C35.47 23.5866 35.7176 23.335 35.9498 23.0692L36.0558 23.1635C35.8198 23.4334 35.5682 23.689 35.3023 23.9288L35.2082 23.8227ZM36.5817 22.2231C36.7701 21.9255 36.9309 21.6109 37.062 21.2831L37.1929 21.337C37.0584 21.6728 36.8936 21.9951 36.7005 22.3L36.5817 22.2231ZM37.3524 20.2676C37.3807 20.1081 37.4031 19.9443 37.4168 19.7803C37.4327 19.5914 37.4391 19.4017 37.436 19.212L37.5769 19.211C37.5791 19.4075 37.572 19.6038 37.5557 19.7938C37.5411 19.9622 37.5189 20.1305 37.4894 20.2941L37.3524 20.2676ZM37.0942 17.1138L37.2288 17.0742C37.3322 17.4208 37.4153 17.7731 37.4776 18.1293L37.3389 18.1527C37.2775 17.802 37.1957 17.4551 37.0942 17.1138ZM36.349 15.1048L36.4781 15.0493C36.643 15.4362 36.7703 15.7545 36.8838 16.0495L36.7522 16.0994C36.6399 15.8062 36.5118 15.4901 36.3481 15.1051L36.349 15.1048ZM35.9191 14.1105C35.7738 13.7795 35.6628 13.4343 35.5878 13.0806L35.7257 13.053C35.7988 13.3968 35.9067 13.7322 36.0479 14.054L36.05 14.0621L35.9205 14.117L35.9191 14.1105ZM35.5329 11.9891C35.5764 11.6224 35.6973 11.2699 35.8875 10.9553L36.0075 11.0302C35.8278 11.3279 35.7137 11.6616 35.6728 12.0086L35.5329 11.9891Z" fill="white"/>
<path d="M33.9976 25.0038C34.1573 24.8914 34.3136 24.7762 34.4623 24.6615L34.3754 24.5398C34.2286 24.6528 34.0744 24.7678 33.916 24.8784L33.9976 25.0038Z" fill="white"/>
<path d="M26.7759 8.92649L11.1416 13.1215C10.8647 13.1959 10.6051 13.324 10.3778 13.4988C10.1504 13.6735 9.95967 13.8914 9.81649 14.14C9.67331 14.3885 9.58047 14.6629 9.54328 14.9475C9.50609 15.232 9.52527 15.5211 9.59974 15.7983L18.1818 47.7823C18.3321 48.342 18.6982 48.8191 19.1998 49.1088C19.7013 49.3984 20.2972 49.4769 20.8564 49.327L36.4907 45.1319C37.0499 44.9819 37.5265 44.6157 37.8157 44.1138C38.1048 43.6119 38.1829 43.0155 38.0328 42.4558L29.4507 10.4718C29.3764 10.1946 29.2482 9.93477 29.0736 9.70709C28.8989 9.47942 28.6812 9.28838 28.4328 9.14488C28.1844 9.00138 27.9103 8.90824 27.626 8.87077C27.3417 8.8333 27.0529 8.85223 26.7759 8.92649Z" fill="#B7B7B7"/>
<path d="M28.6596 11.5657L10.8389 16.3474L19.0102 46.8006L36.8309 42.0189L28.6596 11.5657Z" fill="white"/>
<path d="M18.0595 25.2913L26.8845 22.9234C27.18 22.8441 27.4945 22.8841 27.7589 23.0346C28.0233 23.1852 28.2159 23.4339 28.2943 23.7261L31.3957 35.2846C31.4737 35.5766 31.4312 35.888 31.2777 36.1504C31.1241 36.4127 30.872 36.6045 30.5767 36.6837L21.7517 39.0516C21.4565 39.1309 21.1422 39.0911 20.8779 38.9409C20.6137 38.7907 20.421 38.5423 20.3423 38.2505L17.2409 26.692C17.1625 26.3998 17.2047 26.0881 17.3582 25.8254C17.5118 25.5627 17.764 25.3706 18.0595 25.2913Z" fill="#DAE7F7"/>
<path d="M20.1501 30.7764L22.1238 34.6349C22.1637 34.7156 22.231 34.7801 22.3143 34.8174C22.3977 34.8547 22.4919 34.8625 22.5812 34.8396L27.7489 33.453C27.8375 33.4278 27.915 33.3738 27.9685 33.2998C28.022 33.2259 28.0482 33.1365 28.0427 33.0467L27.8198 28.7185L20.1501 30.7764ZM22.765 34.3651C22.7088 34.3802 22.6491 34.3728 22.599 34.3447C22.5489 34.3166 22.5125 34.27 22.4978 34.2152L21.4275 31.3923C21.4128 31.3375 21.421 31.2789 21.4503 31.2295C21.4796 31.1801 21.5276 31.1439 21.5838 31.1288C21.6399 31.1137 21.6996 31.121 21.7497 31.1492C21.7998 31.1773 21.8362 31.2239 21.851 31.2787L22.9212 34.1016C22.9359 34.1564 22.9277 34.215 22.8984 34.2644C22.8691 34.3138 22.8211 34.35 22.765 34.3651ZM23.8294 34.0795C23.7732 34.0946 23.7135 34.0872 23.6634 34.0591C23.6133 34.031 23.5769 33.9844 23.5622 33.9296L22.6664 31.0599C22.6517 31.0051 22.6599 30.9465 22.6892 30.8971C22.7185 30.8477 22.7665 30.8114 22.8226 30.7964C22.8504 30.7889 22.8794 30.7869 22.9078 30.7904C22.9363 30.7939 22.9637 30.8029 22.9885 30.8168C23.0132 30.8307 23.0349 30.8493 23.0523 30.8716C23.0696 30.8938 23.0822 30.9192 23.0895 30.9464L23.9853 33.8161C23.9926 33.8432 23.9944 33.8715 23.9905 33.8994C23.9866 33.9274 23.9772 33.9543 23.9627 33.9788C23.9482 34.0033 23.929 34.0247 23.9061 34.042C23.8832 34.0593 23.8572 34.072 23.8294 34.0795ZM25.2131 33.4866C25.2204 33.5137 25.2222 33.5421 25.2183 33.57C25.2144 33.5979 25.205 33.6249 25.1905 33.6493C25.176 33.6738 25.1568 33.6953 25.1339 33.7126C25.111 33.7299 25.085 33.7426 25.0572 33.75C25.001 33.7651 24.9413 33.7578 24.8912 33.7297C24.8411 33.7016 24.8047 33.655 24.79 33.6001L24.0115 30.6989C23.9968 30.6441 24.005 30.5856 24.0343 30.5361C24.0636 30.4867 24.1116 30.4505 24.1678 30.4354C24.1956 30.428 24.2245 30.4259 24.253 30.4294C24.2814 30.433 24.3088 30.4419 24.3336 30.4559C24.3584 30.4698 24.3801 30.4884 24.3974 30.5106C24.4148 30.5329 24.4274 30.5583 24.4346 30.5854L25.2131 33.4866ZM26.4412 33.1571C26.456 33.2119 26.4478 33.2705 26.4185 33.3199C26.3891 33.3693 26.3411 33.4055 26.285 33.4206C26.2288 33.4357 26.1691 33.4283 26.119 33.4002C26.0689 33.3721 26.0325 33.3255 26.0178 33.2707L25.3567 30.338C25.342 30.2832 25.3502 30.2246 25.3795 30.1752C25.4088 30.1258 25.4568 30.0896 25.513 30.0745C25.5691 30.0594 25.6288 30.0668 25.6789 30.0949C25.729 30.123 25.7654 30.1696 25.7802 30.2244L26.4412 33.1571ZM27.5053 32.8716C27.5126 32.8987 27.5144 32.927 27.5105 32.9549C27.5067 32.9829 27.4972 33.0098 27.4827 33.0343C27.4683 33.0588 27.449 33.0802 27.4261 33.0975C27.4033 33.1148 27.3772 33.1275 27.3494 33.135C27.2932 33.1501 27.2336 33.1427 27.1834 33.1146C27.1333 33.0865 27.0969 33.0399 27.0822 32.9851L26.5956 30.0056C26.5808 29.9508 26.589 29.8922 26.6183 29.8428C26.6476 29.7934 26.6957 29.7571 26.7518 29.7421C26.7796 29.7346 26.8085 29.7326 26.837 29.7361C26.8655 29.7396 26.8929 29.7486 26.9176 29.7625C26.9424 29.7764 26.9641 29.7951 26.9814 29.8173C26.9988 29.8395 27.0114 29.8649 27.0187 29.8921L27.5053 32.8716Z" fill="#32A0C8"/>
<path d="M27.9857 28.9145L20.2043 31.0024C20.1144 31.0265 20.0186 31.014 19.938 30.9676C19.8574 30.9211 19.7985 30.8446 19.7744 30.7548C19.7625 30.7104 19.7595 30.664 19.7655 30.6184C19.7715 30.5728 19.7865 30.5288 19.8096 30.4889C19.8326 30.4491 19.8633 30.4141 19.8999 30.3861C19.9365 30.3581 19.9782 30.3375 20.0228 30.3256L27.8042 28.2377C27.8486 28.2257 27.895 28.2226 27.9407 28.2286C27.9864 28.2345 28.0304 28.2494 28.0703 28.2724C28.1102 28.2954 28.1452 28.326 28.1732 28.3624C28.2012 28.3989 28.2218 28.4406 28.2336 28.485C28.2456 28.5295 28.2487 28.5758 28.2427 28.6214C28.2367 28.6671 28.2218 28.7111 28.1988 28.751C28.1757 28.7909 28.1451 28.8258 28.1085 28.8539C28.072 28.8819 28.0303 28.9025 27.9857 28.9145Z" fill="#1D8CAA"/>
<path d="M21.6781 30.0345L21.597 29.7324C21.532 29.4901 21.5612 29.2333 21.6782 29.0182C21.7952 28.8032 21.9903 28.6477 22.2208 28.5859L24.9243 27.8605C25.1547 27.7986 25.4016 27.8355 25.6105 27.9631C25.8195 28.0906 25.9734 28.2984 26.0385 28.5406L26.1196 28.8428C26.1264 28.8685 26.1381 28.8928 26.1538 28.9141C26.1696 28.9354 26.1891 28.9534 26.2113 28.967C26.2335 28.9806 26.258 28.9895 26.2833 28.9933C26.3086 28.9971 26.3342 28.9957 26.3587 28.9891C26.3833 28.9825 26.4062 28.9709 26.4262 28.955C26.4462 28.939 26.4629 28.919 26.4754 28.8961C26.4878 28.8732 26.4958 28.8479 26.4988 28.8216C26.5018 28.7952 26.4998 28.7684 26.4928 28.7426L26.4118 28.4405C26.3188 28.0941 26.0988 27.797 25.8001 27.6145C25.5013 27.4321 25.1484 27.3793 24.8189 27.4677L22.1154 28.1931C21.7859 28.2815 21.5068 28.5039 21.3395 28.8114C21.1723 29.1189 21.1305 29.4862 21.2235 29.8326L21.3045 30.1347C21.3114 30.1605 21.3231 30.1848 21.3389 30.2061C21.3547 30.2274 21.3742 30.2453 21.3965 30.2589C21.4187 30.2725 21.4432 30.2814 21.4685 30.2852C21.4938 30.289 21.5195 30.2876 21.544 30.281C21.5685 30.2744 21.5915 30.2628 21.6115 30.2469C21.6315 30.2309 21.6482 30.2109 21.6606 30.188C21.6731 30.1652 21.6811 30.1398 21.684 30.1135C21.687 30.0871 21.685 30.0603 21.6781 30.0345Z" fill="#1D8CAA"/>
<path d="M23.0616 11.6166L15.7004 13.5918C15.6152 13.6146 15.5679 13.7144 15.5948 13.8145L15.6185 13.903C15.6454 14.0032 15.7362 14.0658 15.8214 14.0429L23.1826 12.0678C23.2678 12.0449 23.3151 11.9452 23.2882 11.8451L23.2644 11.7565C23.2376 11.6564 23.1467 11.5938 23.0616 11.6166Z" fill="white"/>
<path opacity="0.3" d="M29.216 45.6348C29.2802 45.8741 29.2468 46.1291 29.1229 46.3437C28.9991 46.5583 28.7951 46.715 28.5558 46.7792C28.3165 46.8434 28.0615 46.8099 27.8469 46.6861C27.6323 46.5623 27.4756 46.3583 27.4114 46.119C27.3472 45.8797 27.3807 45.6247 27.5045 45.41C27.6283 45.1954 27.8323 45.0388 28.0716 44.9746C28.3109 44.9104 28.5659 44.9438 28.7805 45.0676C28.9952 45.1915 29.1518 45.3955 29.216 45.6348Z" fill="#DAE7F7"/>
<path d="M28.6407 46.1495L28.1566 46.2794C28.1311 46.2863 28.1039 46.2827 28.0811 46.2695C28.0582 46.2563 28.0415 46.2346 28.0347 46.2091L27.9047 45.7246C27.8978 45.6991 27.9014 45.6719 27.9146 45.6491C27.9278 45.6262 27.9495 45.6095 27.975 45.6027L28.4591 45.4728C28.4718 45.4693 28.485 45.4684 28.498 45.4701C28.511 45.4718 28.5235 45.476 28.5349 45.4825C28.5462 45.489 28.5562 45.4977 28.5642 45.5081C28.5721 45.5185 28.578 45.5303 28.5814 45.543L28.7112 46.0267C28.7147 46.0393 28.7157 46.0526 28.714 46.0657C28.7124 46.0787 28.7082 46.0914 28.7016 46.1028C28.6951 46.1142 28.6863 46.1242 28.6759 46.1322C28.6654 46.1403 28.6535 46.1461 28.6407 46.1495ZM27.9823 45.6296C27.9637 45.6346 27.9478 45.6468 27.9382 45.6634C27.9286 45.6801 27.926 45.6999 27.931 45.7185L28.0607 46.2021C28.0657 46.2207 28.0779 46.2366 28.0946 46.2462C28.1112 46.2558 28.131 46.2584 28.1496 46.2534L28.6337 46.1235C28.6523 46.1185 28.6682 46.1063 28.6778 46.0897C28.6874 46.073 28.69 46.0532 28.685 46.0346L28.555 45.55C28.55 45.5315 28.5379 45.5156 28.5212 45.506C28.5045 45.4964 28.4847 45.4938 28.4661 45.4988L27.9823 45.6296Z" fill="#DAE7F7"/>
<path d="M36.3418 40.215L18.521 44.9968L19.0053 46.8014L36.826 42.0197L36.3418 40.215Z" fill="#D0E1F5"/>
<path d="M28.6596 11.5657L10.8389 16.3474L11.2626 17.9265L29.0833 13.1447L28.6596 11.5657Z" fill="#D0E1F5"/>
<path d="M12.7001 33.1376C12.5238 33.0518 12.3381 32.9862 12.1464 32.942L12.1766 32.7944C12.3812 32.841 12.5795 32.9109 12.7673 33.0029L12.7001 33.1376Z" fill="white"/>
<path d="M16.432 46.2836C16.1179 46.0951 15.816 45.8884 15.5277 45.6647L15.6202 45.5532C15.904 45.7734 16.2013 45.9768 16.5105 46.1623L16.432 46.2836ZM14.7183 44.9299C14.4679 44.6641 14.2435 44.376 14.0482 44.0693L14.1712 43.9936C14.3623 44.2926 14.5815 44.5735 14.8262 44.8326L14.7183 44.9299ZM13.564 43.0963C13.5061 42.9405 13.4541 42.779 13.4107 42.6172C13.3612 42.4328 13.3206 42.2412 13.2897 42.0473L13.434 42.0231C13.4644 42.2123 13.5041 42.3993 13.5528 42.5808C13.5954 42.7393 13.6459 42.8968 13.7023 43.0485L13.564 43.0963ZM13.3555 40.9628L13.2091 40.9647C13.2118 40.603 13.2363 40.2415 13.2825 39.882L13.4277 39.8971C13.3821 40.2513 13.358 40.6075 13.3557 40.9638L13.3555 40.9628ZM13.6067 38.8381L13.4633 38.8121C13.5273 38.5019 13.6052 38.1661 13.7083 37.7562L13.8503 37.7875C13.7481 38.1967 13.6707 38.5307 13.607 38.8391L13.6067 38.8381ZM14.1183 36.7396L13.9759 36.7084L13.978 36.7002C14.0679 36.3585 14.1215 36.0092 14.1379 35.6578L14.2841 35.6609C14.2675 36.0222 14.2125 36.3814 14.1201 36.7329L14.1183 36.7396ZM14.0145 34.6172C13.9133 34.2829 13.739 33.9749 13.5034 33.7139L13.614 33.6187C13.8631 33.8947 14.0474 34.2206 14.1544 34.5741L14.0145 34.6172Z" fill="white"/>
<path d="M17.8949 47.0987C17.6953 46.9967 17.4986 46.8915 17.3088 46.786L17.3767 46.6331C17.5628 46.7378 17.7577 46.8423 17.956 46.945L17.8949 47.0987Z" fill="white"/>
<path d="M11.0469 31.09L11.4621 33.3501L9.81049 32.2421L4.81244 29.9352L8.59535 30.1174C8.59535 30.1174 10.5378 30.5047 10.6465 30.5954C10.7551 30.6861 11.0469 31.09 11.0469 31.09Z" fill="#1D8CAA"/>
<path d="M12.7019 29.5975L4.81244 29.9352L11.0852 31.0331L12.7019 29.5975Z" fill="#32A0C8"/>
<path d="M8.71246 33.4834L10.7276 31.7025L4.81244 29.9352L8.71246 33.4834Z" fill="#32A0C8"/>
<path d="M22.1805 17.1723L24.9986 16.4161L25.284 17.4796C25.3849 17.8556 25.3339 18.2559 25.1422 18.5924C24.9505 18.9289 24.6338 19.174 24.2618 19.2739L24.2474 19.2777C23.8754 19.3776 23.4785 19.3239 23.1441 19.1286C22.8097 18.9332 22.5651 18.6122 22.4642 18.2362L22.1789 17.1727L22.1805 17.1723Z" fill="#1D8CAA"/>
<path d="M19.3655 17.929L22.1836 17.1728L22.469 18.2362C22.5699 18.6123 22.5189 19.0126 22.3272 19.3491C22.1355 19.6856 21.8188 19.9307 21.4468 20.0305L21.4324 20.0344C21.0604 20.1342 20.6635 20.0805 20.3291 19.8852C19.9947 19.6899 19.7501 19.3689 19.6492 18.9928L19.3639 17.9294L19.3655 17.929Z" fill="#88B2E7"/>
<path d="M16.4273 18.7151L19.3581 17.9287L19.6435 18.9922C19.7444 19.3682 19.6875 19.7701 19.4852 20.1094C19.283 20.4487 18.9521 20.6977 18.5652 20.8015L18.5502 20.8055C18.1633 20.9093 17.7522 20.8595 17.4072 20.667C17.0623 20.4745 16.8118 20.1551 16.7109 19.779L16.4256 18.7156L16.4273 18.7151Z" fill="#1D8CAA"/>
<path d="M13.6149 19.4724L16.4337 18.7161L16.719 19.7795C16.8199 20.1556 16.7689 20.5559 16.5771 20.8924C16.3854 21.2289 16.0686 21.474 15.6965 21.5739L15.6827 21.5776C15.3106 21.6774 14.9137 21.6238 14.5792 21.4285C14.2448 21.2332 14.0002 20.9122 13.8993 20.5361L13.6139 19.4727L13.6149 19.4724Z" fill="#88B2E7"/>
<path d="M10.7889 20.2289L13.6086 19.4723L13.894 20.5357C13.944 20.7219 13.9571 20.9161 13.9328 21.107C13.9084 21.298 13.847 21.482 13.752 21.6486C13.657 21.8153 13.5303 21.9612 13.3791 22.0782C13.228 22.1951 13.0553 22.2808 12.871 22.3302L12.8588 22.3335C12.4866 22.4334 12.0895 22.3798 11.755 22.1845C11.4204 21.9892 11.1758 21.6682 11.0749 21.2922L10.7896 20.2287L10.7889 20.2289Z" fill="#1D8CAA"/>
<path d="M30.6422 14.902L33.5731 14.1155L33.8584 15.179C33.9593 15.555 33.9024 15.9569 33.7002 16.2963C33.498 16.6356 33.167 16.8845 32.7801 16.9883L32.7651 16.9924C32.3783 17.0962 31.9671 17.0463 31.6222 16.8538C31.2773 16.6613 31.0268 16.3419 30.9259 15.9658L30.6406 14.9024L30.6422 14.902Z" fill="#88B2E7"/>
<path d="M27.8205 15.6594L30.6386 14.9032L30.924 15.9667C31.0249 16.3428 30.9739 16.7431 30.7822 17.0796C30.5905 17.416 30.2738 17.6612 29.9018 17.761L29.8874 17.7649C29.5154 17.8647 29.1185 17.811 28.7841 17.6157C28.4497 17.4204 28.2052 17.0994 28.1043 16.7233L27.8189 15.6599L27.8205 15.6594Z" fill="#1D8CAA"/>
<path d="M24.9988 16.4149L27.817 15.6587L28.1023 16.7221C28.2032 17.0982 28.1522 17.4985 27.9605 17.835C27.7688 18.1715 27.4521 18.4166 27.0801 18.5164L27.0657 18.5203C26.6937 18.6201 26.2968 18.5664 25.9624 18.3711C25.628 18.1758 25.3835 17.8548 25.2826 17.4787L24.9972 16.4153L24.9988 16.4149Z" fill="#88B2E7"/>
<path d="M7.96886 20.9863L10.787 20.2302L11.0723 21.2936C11.1732 21.6697 11.1222 22.07 10.9305 22.4065C10.7388 22.743 10.4221 22.9881 10.0501 23.0879L10.0357 23.0918C9.85153 23.1412 9.65929 23.1534 9.46999 23.1279C9.28069 23.1023 9.09804 23.0393 8.93246 22.9426C8.76688 22.8459 8.62162 22.7173 8.50497 22.5642C8.38832 22.411 8.30256 22.2364 8.2526 22.0502L7.96725 20.9868L7.96886 20.9863Z" fill="#88B2E7"/>
<path d="M20.8068 13.6725L18.8018 14.2105L19.3629 17.9291L22.1826 17.1725L20.8068 13.6725Z" fill="#DAE7F7"/>
<path d="M18.7337 14.2296L16.7018 14.7749L16.4313 18.7166L19.2893 17.9497L18.7337 14.2296Z" fill="#32A0C8"/>
<path d="M16.6983 14.7736L14.6845 15.3139L13.6063 19.4724L16.4388 18.7123L16.6983 14.7736Z" fill="#DAE7F7"/>
<path d="M14.6728 15.3188L12.671 15.8559L10.7913 20.2294L13.6068 19.4739L14.6728 15.3188Z" fill="#32A0C8"/>
<path d="M12.7467 15.8329L10.7137 16.3784L7.96293 20.9856L10.8225 20.2183L12.7467 15.8329Z" fill="#DAE7F7"/>
<path d="M28.8869 11.505L26.8561 12.0499L30.7205 14.8821L33.5769 14.1157L28.8869 11.505Z" fill="#DAE7F7"/>
<path d="M26.8239 12.0571L24.8207 12.5946L27.8215 15.6585L30.6391 14.9025L26.8239 12.0571Z" fill="#32A0C8"/>
<path d="M24.8074 12.5994L22.7952 13.1393L24.9938 16.4185L27.8241 15.659L24.8074 12.5994Z" fill="#DAE7F7"/>
<path d="M22.793 13.1401L20.7631 13.6848L22.1472 17.1825L25.0024 16.4164L22.793 13.1401Z" fill="#32A0C8"/>
</svg>
