<svg width="31" height="31" viewBox="0 0 31 31" fill="none" xmlns="http://www.w3.org/2000/svg">
<path d="M31 14.5854V16.4049C30.975 16.6225 30.9499 16.8409 30.9241 17.0585C30.5532 20.3943 29.279 23.3367 27.03 25.831C24.6422 28.4799 21.6841 30.1334 18.1639 30.7589C17.5806 30.862 16.9897 30.9212 16.4019 31H14.5853C14.0665 30.9348 13.5446 30.8878 13.0296 30.8021C9.79082 30.2608 6.9692 28.8681 4.64668 26.5482C1.16289 23.0683 -0.370041 18.8386 0.0751987 13.941C0.374048 10.6536 1.66123 7.74766 3.86088 5.27913C6.78111 2.00015 10.456 0.23367 14.8424 0.0198724C17.9007 -0.131757 20.7762 0.583933 23.3938 2.18059C27.4184 4.63395 29.888 8.1889 30.7573 12.8325C30.8673 13.4072 30.9211 13.9986 31 14.5854ZM17.5397 15.4853C17.4395 15.5899 17.366 15.671 17.2893 15.7476C15.5842 17.4524 13.8791 19.1575 12.174 20.8628C12.0725 20.9609 11.9772 21.0652 11.8888 21.1752C11.7847 21.3088 11.7084 21.4619 11.6643 21.6255C11.6202 21.789 11.6093 21.9598 11.6322 22.1276C11.6551 22.2954 11.7114 22.457 11.7976 22.6028C11.8839 22.7486 11.9985 22.8756 12.1346 22.9765C12.6921 23.3981 13.3679 23.3207 13.93 22.7597C15.9941 20.7001 18.0565 18.6392 20.117 16.577C20.8543 15.8401 20.8513 15.1449 20.1095 14.4027C18.0691 12.3622 16.028 10.3228 13.9861 8.28442C13.8948 8.19035 13.7978 8.10199 13.6956 8.01983C13.4645 7.83607 13.1763 7.73895 12.8811 7.74532C12.5859 7.75169 12.3022 7.86114 12.0792 8.05471C11.4724 8.56721 11.4641 9.40724 12.0747 10.0259C13.0691 11.0289 14.071 12.0244 15.07 13.0228L17.5397 15.4853Z" fill="#0A0D16"/>
</svg>
