<svg width="31" height="31" viewBox="0 0 31 31" fill="none" xmlns="http://www.w3.org/2000/svg">
<path d="M6.32254e-07 16.4146L4.73184e-07 14.5951C0.0250306 14.3775 0.0500607 14.1591 0.0758499 13.9416C0.446756 10.6057 1.72104 7.66334 3.96999 5.16904C6.35775 2.52008 9.3159 0.866564 12.8361 0.241092C13.4194 0.137985 14.0103 0.0788456 14.5981 -2.3808e-06L16.4147 -2.53961e-06C16.9335 0.0651982 17.4554 0.112207 17.9704 0.197877C21.2092 0.739194 24.0308 2.13191 26.3533 4.45183C29.8371 7.93172 31.37 12.1614 30.9248 17.059C30.626 20.3464 29.3388 23.2523 27.1391 25.7209C24.2189 28.9999 20.544 30.7663 16.1576 30.9801C13.0993 31.1318 10.2238 30.4161 7.60624 28.8194C3.58164 26.3661 1.11197 22.8111 0.242726 18.1675C0.132745 17.5928 0.0788848 17.0014 6.32254e-07 16.4146ZM13.4603 15.5147C13.5605 15.4101 13.634 15.329 13.7107 15.2524C15.4158 13.5476 17.1209 11.8425 18.826 10.1372C18.9275 10.0391 19.0228 9.93481 19.1112 9.82482C19.2153 9.69118 19.2916 9.53808 19.3357 9.37452C19.3798 9.21096 19.3907 9.04025 19.3678 8.87242C19.3449 8.70459 19.2886 8.54302 19.2024 8.39723C19.1161 8.25144 19.0015 8.12436 18.8654 8.02346C18.3079 7.60193 17.6321 7.67926 17.07 8.24029C15.0059 10.2999 12.9435 12.3608 10.883 14.423C10.1457 15.1599 10.1487 15.8551 10.8905 16.5973C12.9309 18.6378 14.972 20.6772 17.0139 22.7156C17.1052 22.8096 17.2022 22.898 17.3044 22.9802C17.5355 23.1639 17.8237 23.2611 18.1189 23.2547C18.4141 23.2483 18.6978 23.1389 18.9208 22.9453C19.5276 22.4328 19.5359 21.5928 18.9253 20.9741C17.9309 19.9711 16.929 18.9756 15.93 17.9772L13.4603 15.5147Z" fill="#0A0D16"/>
</svg>
